<?xml version="1.0" encoding="UTF-8"?><svg id="Layer_2" xmlns="http://www.w3.org/2000/svg" viewBox="0 0 396 612"><defs><style>.cls-1{font-family:NHaasGroteskTXPro-65Md, 'Neue Haas Grotesk Text Pro';font-size:14px;font-weight:500;}.cls-2{fill:#b22222;}.cls-3{letter-spacing:-.08em;}.cls-4{letter-spacing:-.05em;}.cls-5{letter-spacing:-.01em;}.cls-6{letter-spacing:0em;}</style></defs><g id="Layer_1-2"><rect class="cls-2" width="396" height="612"/><path d="M102.18,230.72h12.79v21.59h21.13v-21.59h12.79v55.97h-12.79v-23.7h-21.13v23.7h-12.79v-55.97Z"/><path d="M179.99,281.8h-.16c-2.63,3.68-5.94,5.94-12.11,5.94-7.9,0-13.69-4.21-13.69-12.11,0-8.88,6.99-11.13,15.72-12.19,7.15-.98,10.08-2.1,10.08-5.11s-1.88-4.81-5.94-4.81c-4.51,0-6.7,2.1-7,5.26h-10.91c.3-6.85,5.87-13.24,17.75-13.24,5.12,0,8.73.75,11.51,2.41,4.14,2.41,6.09,6.54,6.09,11.96v20.54c0,3.16.45,4.89,1.5,5.57v.68h-11.51c-.6-.9-1.12-2.63-1.35-4.89ZM180.13,272.31v-5.19c-1.73,1.05-4.29,1.66-6.92,2.26-5.19,1.13-7.67,2.41-7.67,5.86s2.63,4.74,5.87,4.74c5.26,0,8.72-3.31,8.72-7.68Z"/><path d="M197.37,230.72h11.96v10.3h-11.96v-10.3ZM197.45,246.66h11.81v40.02h-11.81v-40.02Z"/><path d="M230.84,269.23l-3.98,4.14v13.32h-11.66v-55.97h11.66v17.45c0,5.87-.23,10.31-.38,12.86l13.16-14.37h13.69l-14.3,14.82,15.96,25.2h-13.69l-10.46-17.45Z"/><path d="M282.6,286.68v-5.72h-.22c-2.94,4.66-6.54,6.85-12.04,6.85-9.1,0-14.06-5.87-14.06-14.67v-26.48h11.81v24.22c0,4.44,2.19,6.99,6.4,6.99,4.74,0,7.68-3.61,7.68-8.57v-22.64h11.66v40.02h-11.21Z"/><path d="M81.11,302.71h24.9c6.62,0,11.58,1.81,14.97,5.19s5.34,7.9,5.34,13.39c0,10.61-7.23,17.98-18.81,17.98h-13.39v19.41h-13.02v-55.97ZM94.13,329.12h10.91c5.42,0,8.35-3.08,8.35-7.82s-3.01-7.67-8.27-7.67h-10.99v15.49Z"/><path d="M129.95,302.71h11.96v10.3h-11.96v-10.3ZM130.03,318.66h11.81v40.02h-11.81v-40.02Z"/><path d="M145.9,338.74c0-12.04,8.2-21.21,20.76-21.21,10.68,0,17.3,6.09,18.73,14.82h-11.44c-.82-3.69-3.23-6.02-7.15-6.02-5.94,0-8.95,4.89-8.95,12.41s3.01,12.27,8.95,12.27c4.37,0,7-2.64,7.53-7.22h11.36c-.38,9.1-7.6,16.17-18.73,16.17-12.79,0-21.06-9.25-21.06-21.22Z"/><path d="M204.96,341.23l-3.98,4.14v13.32h-11.66v-55.97h11.66v17.45c0,5.87-.23,10.31-.38,12.86l13.16-14.37h13.69l-14.3,14.82,15.96,25.2h-13.69l-10.46-17.45Z"/><path d="M256.72,358.68v-5.72h-.22c-2.94,4.66-6.54,6.85-12.04,6.85-9.1,0-14.06-5.87-14.06-14.67v-26.48h11.81v24.22c0,4.44,2.19,6.99,6.4,6.99,4.74,0,7.68-3.61,7.68-8.57v-22.64h11.66v40.02h-11.21Z"/><path d="M273.89,318.66h11.36v5.72h.22c2.71-4.59,6.69-6.85,12.19-6.85,10.61,0,17.23,8.88,17.23,21.14,0,13.01-6.92,21.29-17.61,21.29-5.26,0-9.47-2.33-11.81-6.25h-.16c.16,1.5.38,4.44.38,8.73v9.56h-11.81v-53.33ZM302.92,339.05c0-7.15-2.78-12.11-8.57-12.11-6.09,0-9.03,5.34-9.03,12.11s3.16,11.73,9.18,11.73c5.34,0,8.43-4.58,8.43-11.73Z"/><path d="M106.77,374.72h12.79v44.99h25.8v10.98h-38.59v-55.97Z"/><path d="M150.19,374.72h11.96v10.3h-11.96v-10.3ZM150.27,390.66h11.81v40.02h-11.81v-40.02Z"/><path d="M179.45,396.76h.23c2.48-4.81,6.77-7.22,12.33-7.22,8.8,0,13.92,5.86,13.92,14.82v26.33h-11.74v-24.07c0-4.37-2.33-7.29-6.69-7.29-4.59,0-7.68,3.68-7.68,8.8v22.57h-11.81v-40.02h11.43v6.09Z"/><path d="M209.7,410.75c0-12.04,8.35-21.21,20.54-21.21,5.71,0,10.23,1.88,13.77,5.11,4.51,4.37,6.54,11.14,6.46,19.03h-29.19c.75,6.02,3.99,9.63,9.71,9.63,3.68,0,6.02-1.43,7.29-3.91h11.44c-2.03,7.07-8.57,12.49-18.88,12.49-13.1,0-21.14-9.17-21.14-21.14ZM221.36,406.84h17.08c-.38-5.57-3.54-8.95-8.2-8.95-5.42,0-8.12,3.46-8.88,8.95Z"/><path d="M251.99,418.34h11.13c.67,3.76,3.54,5.87,8.12,5.87,4.21,0,6.62-1.73,6.62-4.59,0-3.61-4.75-4.06-10.31-5.11-7.15-1.36-14.37-3.16-14.37-12.49,0-8.2,7.45-12.49,16.85-12.49,11.13,0,16.7,4.81,17.75,11.81h-10.98c-.75-2.86-3.01-4.29-6.78-4.29s-5.94,1.51-5.94,4.06c0,3.01,4.37,3.46,9.85,4.44,7.15,1.28,15.27,3.16,15.27,13.24,0,8.65-7.68,13.16-18.06,13.16-11.58,0-18.58-5.57-19.18-13.62Z"/><text class="cls-1" transform="translate(211.76 538.22)"><tspan class="cls-6" x="0" y="0">Joshua Blan</tspan><tspan class="cls-4" x="79.53" y="0">k</tspan><tspan class="cls-6" x="86.85" y="0">enship</tspan></text><text class="cls-1" transform="translate(54 538.22)"><tspan class="cls-3" x="0" y="0">V</tspan><tspan class="cls-5" x="8.37" y="0">olume 1</tspan></text><rect x="102.13" y="70.21" width="27.39" height="27.39"/><rect x="184.3" y="70.21" width="27.39" height="27.39"/><rect x="266.47" y="70.21" width="27.39" height="27.39"/><rect x="102.13" y="111.3" width="27.39" height="27.39"/><rect x="61.05" y="111.3" width="27.39" height="27.39"/><rect x="266.47" y="111.3" width="27.39" height="27.39"/><rect x="307.56" y="111.3" width="27.39" height="27.39"/><rect x="102.13" y="152.38" width="27.39" height="27.39"/><rect x="184.3" y="152.38" width="27.39" height="27.39"/><rect x="266.47" y="152.38" width="27.39" height="27.39"/><path d="M211.41,116.78c-.61-2.41-2.05-4.05-4.24-4.9-2.44-.95-4.81-.78-6.97.87-.98.75-1.64,1.79-2.09,2.99-.03.08-.06.16-.11.29-.05-.12-.08-.21-.11-.29-.45-1.19-1.11-2.23-2.09-2.99-2.16-1.66-4.53-1.82-6.97-.87-2.19.85-3.63,2.49-4.24,4.9-.37,1.48-.34,2.98-.13,4.49.41,2.94,1.6,5.54,3.24,7.91,2.73,3.93,6.21,6.94,10.12,9.45.06.04.12.06.18.07.05,0,.11-.03.18-.07,3.91-2.51,7.39-5.52,10.12-9.45,1.64-2.37,2.83-4.96,3.24-7.91.21-1.5.24-3-.13-4.49Z"/><path d="M170.32,75.69c-.61-2.41-2.05-4.05-4.24-4.9-2.44-.95-4.81-.78-6.97.87-.98.75-1.64,1.79-2.09,2.99-.03.08-.06.16-.11.29-.05-.12-.08-.21-.11-.29-.45-1.19-1.11-2.23-2.09-2.99-2.16-1.66-4.53-1.82-6.97-.87-2.19.85-3.63,2.49-4.24,4.9-.37,1.48-.34,2.98-.13,4.49.41,2.94,1.6,5.54,3.24,7.91,2.73,3.93,6.21,6.94,10.12,9.45.06.04.12.06.18.07.05,0,.11-.03.18-.07,3.91-2.51,7.39-5.52,10.12-9.45,1.64-2.37,2.83-4.96,3.24-7.91.21-1.5.24-3-.13-4.49Z"/><path d="M252.49,75.69c-.61-2.41-2.05-4.05-4.24-4.9-2.44-.95-4.81-.78-6.97.87-.98.75-1.64,1.79-2.09,2.99-.03.08-.06.16-.11.29-.05-.12-.08-.21-.11-.29-.45-1.19-1.11-2.23-2.09-2.99-2.16-1.66-4.53-1.82-6.97-.87-2.19.85-3.63,2.49-4.24,4.9-.37,1.48-.34,2.98-.13,4.49.41,2.94,1.6,5.54,3.24,7.91,2.73,3.93,6.21,6.94,10.12,9.45.06.04.12.06.18.07.05,0,.11-.03.18-.07,3.91-2.51,7.39-5.52,10.12-9.45,1.64-2.37,2.83-4.96,3.24-7.91.21-1.5.24-3-.13-4.49Z"/><path d="M170.32,116.78c-.61-2.41-2.05-4.05-4.24-4.9-2.44-.95-4.81-.78-6.97.87-.98.75-1.64,1.79-2.09,2.99-.03.08-.06.16-.11.29-.05-.12-.08-.21-.11-.29-.45-1.19-1.11-2.23-2.09-2.99-2.16-1.66-4.53-1.82-6.97-.87-2.19.85-3.63,2.49-4.24,4.9-.37,1.48-.34,2.98-.13,4.49.41,2.94,1.6,5.54,3.24,7.91,2.73,3.93,6.21,6.94,10.12,9.45.06.04.12.06.18.07.05,0,.11-.03.18-.07,3.91-2.51,7.39-5.52,10.12-9.45,1.64-2.37,2.83-4.96,3.24-7.91.21-1.5.24-3-.13-4.49Z"/><path d="M252.49,116.78c-.61-2.41-2.05-4.05-4.24-4.9-2.44-.95-4.81-.78-6.97.87-.98.75-1.64,1.79-2.09,2.99-.03.08-.06.16-.11.29-.05-.12-.08-.21-.11-.29-.45-1.19-1.11-2.23-2.09-2.99-2.16-1.66-4.53-1.82-6.97-.87-2.19.85-3.63,2.49-4.24,4.9-.37,1.48-.34,2.98-.13,4.49.41,2.94,1.6,5.54,3.24,7.91,2.73,3.93,6.21,6.94,10.12,9.45.06.04.12.06.18.07.05,0,.11-.03.18-.07,3.91-2.51,7.39-5.52,10.12-9.45,1.64-2.37,2.83-4.96,3.24-7.91.21-1.5.24-3-.13-4.49Z"/><path d="M170.32,157.86c-.61-2.41-2.05-4.05-4.24-4.9-2.44-.95-4.81-.78-6.97.87-.98.75-1.64,1.79-2.09,2.99-.03.08-.06.16-.11.29-.05-.12-.08-.21-.11-.29-.45-1.19-1.11-2.23-2.09-2.99-2.16-1.66-4.53-1.82-6.97-.87-2.19.85-3.63,2.49-4.24,4.9-.37,1.48-.34,2.98-.13,4.49.41,2.94,1.6,5.54,3.24,7.91,2.73,3.93,6.21,6.94,10.12,9.45.06.04.12.06.18.07.05,0,.11-.03.18-.07,3.91-2.51,7.39-5.52,10.12-9.45,1.64-2.37,2.83-4.96,3.24-7.91.21-1.5.24-3-.13-4.49Z"/><path d="M252.49,157.86c-.61-2.41-2.05-4.05-4.24-4.9-2.44-.95-4.81-.78-6.97.87-.98.75-1.64,1.79-2.09,2.99-.03.08-.06.16-.11.29-.05-.12-.08-.21-.11-.29-.45-1.19-1.11-2.23-2.09-2.99-2.16-1.66-4.53-1.82-6.97-.87-2.19.85-3.63,2.49-4.24,4.9-.37,1.48-.34,2.98-.13,4.49.41,2.94,1.6,5.54,3.24,7.91,2.73,3.93,6.21,6.94,10.12,9.45.06.04.12.06.18.07.05,0,.11-.03.18-.07,3.91-2.51,7.39-5.52,10.12-9.45,1.64-2.37,2.83-4.96,3.24-7.91.21-1.5.24-3-.13-4.49Z"/></g></svg>