<?xml version="1.0" encoding="UTF-8"?><svg id="Layer_2" xmlns="http://www.w3.org/2000/svg" viewBox="0 0 396 612"><defs><style>.cls-1{fill:#b22222;}</style></defs><g id="Layer_1-2"><rect class="cls-1" width="396" height="612"/><path d="M102.18,230.72h12.79v21.59h21.13v-21.59h12.79v55.97h-12.79v-23.7h-21.13v23.7h-12.79v-55.97Z"/><path d="M179.99,281.8h-.16c-2.63,3.68-5.94,5.94-12.11,5.94-7.9,0-13.69-4.21-13.69-12.11,0-8.88,6.99-11.13,15.72-12.19,7.15-.98,10.08-2.1,10.08-5.11s-1.88-4.81-5.94-4.81c-4.51,0-6.7,2.1-7,5.26h-10.91c.3-6.85,5.87-13.24,17.75-13.24,5.12,0,8.73.75,11.51,2.41,4.14,2.41,6.09,6.54,6.09,11.96v20.54c0,3.16.45,4.89,1.5,5.57v.68h-11.51c-.6-.9-1.12-2.63-1.35-4.89ZM180.13,272.31v-5.19c-1.73,1.05-4.29,1.66-6.92,2.26-5.19,1.13-7.67,2.41-7.67,5.86s2.63,4.74,5.87,4.74c5.26,0,8.72-3.31,8.72-7.68Z"/><path d="M197.37,230.72h11.96v10.3h-11.96v-10.3ZM197.45,246.66h11.81v40.02h-11.81v-40.02Z"/><path d="M230.84,269.23l-3.98,4.14v13.32h-11.66v-55.97h11.66v17.45c0,5.87-.23,10.31-.38,12.86l13.16-14.37h13.69l-14.3,14.82,15.96,25.2h-13.69l-10.46-17.45Z"/><path d="M282.6,286.68v-5.72h-.22c-2.94,4.66-6.54,6.85-12.04,6.85-9.1,0-14.06-5.87-14.06-14.67v-26.48h11.81v24.22c0,4.44,2.19,6.99,6.4,6.99,4.74,0,7.68-3.61,7.68-8.57v-22.64h11.66v40.02h-11.21Z"/><path d="M81.11,302.71h24.9c6.62,0,11.58,1.81,14.97,5.19s5.34,7.9,5.34,13.39c0,10.61-7.23,17.98-18.81,17.98h-13.39v19.41h-13.02v-55.97ZM94.13,329.12h10.91c5.42,0,8.35-3.08,8.35-7.82s-3.01-7.67-8.27-7.67h-10.99v15.49Z"/><path d="M129.95,302.71h11.96v10.3h-11.96v-10.3ZM130.03,318.66h11.81v40.02h-11.81v-40.02Z"/><path d="M145.9,338.74c0-12.04,8.2-21.21,20.76-21.21,10.68,0,17.3,6.09,18.73,14.82h-11.44c-.82-3.69-3.23-6.02-7.15-6.02-5.94,0-8.95,4.89-8.95,12.41s3.01,12.27,8.95,12.27c4.37,0,7-2.64,7.53-7.22h11.36c-.38,9.1-7.6,16.17-18.73,16.17-12.79,0-21.06-9.25-21.06-21.22Z"/><path d="M204.96,341.23l-3.98,4.14v13.32h-11.66v-55.97h11.66v17.45c0,5.87-.23,10.31-.38,12.86l13.16-14.37h13.69l-14.3,14.82,15.96,25.2h-13.69l-10.46-17.45Z"/><path d="M256.72,358.68v-5.72h-.22c-2.94,4.66-6.54,6.85-12.04,6.85-9.1,0-14.06-5.87-14.06-14.67v-26.48h11.81v24.22c0,4.44,2.19,6.99,6.4,6.99,4.74,0,7.68-3.61,7.68-8.57v-22.64h11.66v40.02h-11.21Z"/><path d="M273.89,318.66h11.36v5.72h.22c2.71-4.59,6.69-6.85,12.19-6.85,10.61,0,17.23,8.88,17.23,21.14,0,13.01-6.92,21.29-17.61,21.29-5.26,0-9.47-2.33-11.81-6.25h-.16c.16,1.5.38,4.44.38,8.73v9.56h-11.81v-53.33ZM302.92,339.05c0-7.15-2.78-12.11-8.57-12.11-6.09,0-9.03,5.34-9.03,12.11s3.16,11.73,9.18,11.73c5.34,0,8.43-4.58,8.43-11.73Z"/><path d="M106.77,374.72h12.79v44.99h25.8v10.98h-38.59v-55.97Z"/><path d="M150.19,374.72h11.96v10.3h-11.96v-10.3ZM150.27,390.66h11.81v40.02h-11.81v-40.02Z"/><path d="M179.45,396.76h.23c2.48-4.81,6.77-7.22,12.33-7.22,8.8,0,13.92,5.86,13.92,14.82v26.33h-11.74v-24.07c0-4.37-2.33-7.29-6.69-7.29-4.59,0-7.68,3.68-7.68,8.8v22.57h-11.81v-40.02h11.43v6.09Z"/><path d="M209.7,410.75c0-12.04,8.35-21.21,20.54-21.21,5.71,0,10.23,1.88,13.77,5.11,4.51,4.37,6.54,11.14,6.46,19.03h-29.19c.75,6.02,3.99,9.63,9.71,9.63,3.68,0,6.02-1.43,7.29-3.91h11.44c-2.03,7.07-8.57,12.49-18.88,12.49-13.1,0-21.14-9.17-21.14-21.14ZM221.36,406.84h17.08c-.38-5.57-3.54-8.95-8.2-8.95-5.42,0-8.12,3.46-8.88,8.95Z"/><path d="M251.99,418.34h11.13c.67,3.76,3.54,5.87,8.12,5.87,4.21,0,6.62-1.73,6.62-4.59,0-3.61-4.75-4.06-10.31-5.11-7.15-1.36-14.37-3.16-14.37-12.49,0-8.2,7.45-12.49,16.85-12.49,11.13,0,16.7,4.81,17.75,11.81h-10.98c-.75-2.86-3.01-4.29-6.78-4.29s-5.94,1.51-5.94,4.06c0,3.01,4.37,3.46,9.85,4.44,7.15,1.28,15.27,3.16,15.27,13.24,0,8.65-7.68,13.16-18.06,13.16-11.58,0-18.58-5.57-19.18-13.62Z"/><path d="M212.15,535.04v-.53h1.82v.48c0,1.37.51,1.83,1.47,1.83.9,0,1.37-.5,1.37-1.54v-7.48h1.95v7.55c0,.85-.22,1.55-.7,2.07-.53.62-1.4,1-2.55,1-2.19,0-3.36-1.18-3.36-3.38Z"/><path d="M219.89,534.49c0-2.23,1.5-3.95,3.82-3.95s3.8,1.72,3.8,3.95-1.47,3.95-3.8,3.95-3.82-1.74-3.82-3.95ZM225.7,534.49c0-1.51-.7-2.63-2-2.63s-2,1.12-2,2.63.69,2.6,2,2.6,2-1.11,2-2.6Z"/><path d="M228.14,535.92h1.71c.14.9.83,1.27,1.78,1.27s1.44-.42,1.44-1.02c0-.74-.76-.88-1.93-1.11-1.4-.28-2.73-.6-2.73-2.3,0-1.41,1.21-2.23,2.96-2.23,1.99,0,2.98.9,3.17,2.2h-1.7c-.12-.64-.6-1-1.48-1-.83,0-1.26.38-1.26.9,0,.66.77.78,1.9,1,1.41.27,2.82.6,2.82,2.42,0,1.57-1.35,2.4-3.2,2.4-2.13,0-3.36-1.02-3.47-2.54Z"/><path d="M237.66,531.81h.04c.5-.8,1.26-1.27,2.31-1.27,1.61,0,2.58.99,2.58,2.61v5.07h-1.78v-4.78c0-.88-.52-1.43-1.43-1.43-.99,0-1.7.76-1.7,1.82v4.38h-1.78v-10.42h1.78v2.8c0,.21-.01.78-.03,1.22Z"/><path d="M248.83,538.22v-1.06h-.03c-.55.81-1.21,1.26-2.26,1.26-1.64,0-2.59-1.02-2.59-2.63v-5.04h1.78v4.79c0,.88.51,1.4,1.4,1.4,1.01,0,1.65-.77,1.65-1.81v-4.38h1.76v7.48h-1.72Z"/><path d="M256.63,537.25h-.03c-.49.66-1.16,1.15-2.35,1.15-1.46,0-2.55-.76-2.55-2.21,0-1.69,1.29-2.1,3.07-2.31,1.23-.15,1.85-.35,1.85-1.02s-.45-1.08-1.35-1.08c-.99,0-1.48.46-1.53,1.2h-1.68c.06-1.27,1.06-2.44,3.19-2.44.86,0,1.51.13,2,.43.7.42,1.06,1.13,1.06,2.13v3.94c0,.62.11.94.28,1.05v.13h-1.72c-.12-.17-.22-.46-.25-.97ZM256.66,535.5v-1.11c-.35.22-.91.38-1.46.49-1.09.21-1.72.43-1.72,1.26s.6,1.04,1.29,1.04c1.22,0,1.89-.84,1.89-1.68Z"/><path d="M263.39,527.79h4.72c1.08,0,1.9.27,2.45.8.52.48.8,1.11.8,1.91,0,1.08-.59,1.79-1.71,2.13v.04c1.3.31,2.13,1.2,2.13,2.52,0,.92-.34,1.65-.93,2.16-.6.56-1.47.87-2.59.87h-4.88v-10.42ZM267.83,532.09c1.01,0,1.64-.49,1.64-1.39s-.59-1.36-1.54-1.36h-2.62v2.75h2.52ZM268.1,536.63c.59,0,1.04-.17,1.32-.45.27-.25.42-.62.42-1.06,0-1.06-.76-1.58-1.79-1.58h-2.73v3.1h2.79Z"/><path d="M272.92,527.79h1.79v10.42h-1.79v-10.42Z"/><path d="M280.81,537.25h-.03c-.49.66-1.16,1.15-2.35,1.15-1.46,0-2.55-.76-2.55-2.21,0-1.69,1.29-2.1,3.07-2.31,1.23-.15,1.85-.35,1.85-1.02s-.45-1.08-1.34-1.08c-.99,0-1.48.46-1.53,1.2h-1.68c.05-1.27,1.06-2.44,3.19-2.44.85,0,1.51.13,2,.43.7.42,1.06,1.13,1.06,2.13v3.94c0,.62.11.94.28,1.05v.13h-1.72c-.13-.17-.22-.46-.25-.97ZM280.83,535.5v-1.11c-.35.22-.91.38-1.46.49-1.09.21-1.72.43-1.72,1.26s.6,1.04,1.29,1.04c1.22,0,1.89-.84,1.89-1.68Z"/><path d="M285.73,531.83h.04c.49-.83,1.27-1.29,2.32-1.29,1.61,0,2.58.99,2.58,2.61v5.07h-1.78v-4.78c0-.88-.52-1.43-1.43-1.43-.99,0-1.69.76-1.69,1.82v4.38h-1.78v-7.48h1.74v1.09Z"/><path d="M294.75,534.63l-.88.88v2.7h-1.77v-10.42h1.77v4.03c0,.71-.04,1.4-.06,1.83l2.82-2.93h2.12l-2.75,2.73,3.07,4.75h-2.07l-2.24-3.59Z"/><path d="M299.04,534.49c0-2.23,1.5-3.95,3.71-3.95,1.09,0,1.95.38,2.58,1.05.73.77,1.08,1.95,1.06,3.33h-5.59c.12,1.29.81,2.16,2.06,2.16.85,0,1.41-.36,1.65-.98h1.74c-.37,1.34-1.57,2.34-3.4,2.34-2.38,0-3.81-1.74-3.81-3.95ZM300.84,533.8h3.73c-.07-1.23-.73-1.98-1.81-1.98-1.16,0-1.77.8-1.92,1.98Z"/><path d="M309.24,531.83h.04c.49-.83,1.27-1.29,2.32-1.29,1.61,0,2.58.99,2.58,2.61v5.07h-1.78v-4.78c0-.88-.52-1.43-1.43-1.43-.99,0-1.69.76-1.69,1.82v4.38h-1.78v-7.48h1.74v1.09Z"/><path d="M315.13,535.92h1.71c.14.9.83,1.27,1.78,1.27s1.44-.42,1.44-1.02c0-.74-.76-.88-1.93-1.11-1.4-.28-2.73-.6-2.73-2.3,0-1.41,1.21-2.23,2.96-2.23,1.99,0,2.98.9,3.17,2.2h-1.7c-.12-.64-.6-1-1.48-1-.83,0-1.26.38-1.26.9,0,.66.77.78,1.9,1,1.41.27,2.82.6,2.82,2.42,0,1.57-1.35,2.4-3.2,2.4-2.13,0-3.36-1.02-3.47-2.54Z"/><path d="M324.65,531.81h.04c.5-.8,1.26-1.27,2.31-1.27,1.61,0,2.58.99,2.58,2.61v5.07h-1.78v-4.78c0-.88-.52-1.43-1.43-1.43-.99,0-1.7.76-1.7,1.82v4.38h-1.78v-10.42h1.78v2.8c0,.21-.01.78-.03,1.22Z"/><path d="M330.98,527.79h1.82v1.72h-1.82v-1.72ZM331.01,530.73h1.78v7.48h-1.78v-7.48Z"/><path d="M334.26,530.73h1.72v1.11h.04c.53-.85,1.28-1.3,2.33-1.3,1.95,0,3.22,1.57,3.22,3.95s-1.26,3.96-3.28,3.96c-.99,0-1.81-.43-2.27-1.19h-.04c.03.28.06.76.06,1.46v2h-1.78v-9.99ZM339.76,534.53c0-1.49-.6-2.55-1.82-2.55-1.35,0-1.97,1.13-1.97,2.55s.62,2.51,1.99,2.51c1.18,0,1.81-1.04,1.81-2.51Z"/><path d="M54.19,527.79h2.04l1.89,5.91c.29.97.66,2.68.66,2.68h.03s.37-1.72.66-2.68l1.86-5.91h1.99l-3.54,10.42h-2.07l-3.52-10.42Z"/><path d="M62.81,534.49c0-2.23,1.5-3.95,3.82-3.95s3.8,1.72,3.8,3.95-1.47,3.95-3.8,3.95-3.82-1.74-3.82-3.95ZM68.62,534.49c0-1.51-.7-2.63-2-2.63s-2,1.12-2,2.63.69,2.6,2,2.6,2-1.11,2-2.6Z"/><path d="M71.56,527.79h1.79v10.42h-1.79v-10.42Z"/><path d="M79.67,538.22v-1.06h-.03c-.55.81-1.2,1.26-2.25,1.26-1.64,0-2.59-1.02-2.59-2.63v-5.04h1.78v4.79c0,.88.5,1.4,1.4,1.4,1.01,0,1.65-.77,1.65-1.81v-4.38h1.77v7.48h-1.72Z"/><path d="M82.87,530.73h1.72v1.13h.04c.48-.84,1.22-1.33,2.24-1.33.94,0,1.65.48,1.99,1.4h.03c.59-.97,1.43-1.4,2.35-1.4,1.53,0,2.42.99,2.42,2.61v5.07h-1.78v-4.83c0-.85-.49-1.37-1.22-1.37-.87,0-1.51.73-1.51,1.78v4.43h-1.78v-4.83c0-.85-.43-1.37-1.18-1.37-.83,0-1.56.73-1.56,1.78v4.43h-1.78v-7.48Z"/><path d="M94.72,534.49c0-2.23,1.5-3.95,3.71-3.95,1.09,0,1.95.38,2.58,1.05.73.77,1.08,1.95,1.06,3.33h-5.59c.13,1.29.81,2.16,2.06,2.16.85,0,1.41-.36,1.65-.98h1.74c-.36,1.34-1.57,2.34-3.4,2.34-2.38,0-3.81-1.74-3.81-3.95ZM96.51,533.8h3.73c-.07-1.23-.73-1.98-1.81-1.98-1.16,0-1.76.8-1.92,1.98Z"/><path d="M108.59,531.39h-2.31v-1.23c1.37-.04,2.49-.59,2.72-2h1.44v10.06h-1.85v-6.82Z"/><rect x="102.13" y="70.21" width="27.39" height="27.39"/><rect x="184.3" y="70.21" width="27.39" height="27.39"/><rect x="266.47" y="70.21" width="27.39" height="27.39"/><rect x="102.13" y="111.3" width="27.39" height="27.39"/><rect x="61.05" y="111.3" width="27.39" height="27.39"/><rect x="266.47" y="111.3" width="27.39" height="27.39"/><rect x="307.56" y="111.3" width="27.39" height="27.39"/><rect x="102.13" y="152.38" width="27.39" height="27.39"/><rect x="184.3" y="152.38" width="27.39" height="27.39"/><rect x="266.47" y="152.38" width="27.39" height="27.39"/><path d="M211.41,116.78c-.61-2.41-2.05-4.05-4.24-4.9-2.44-.95-4.81-.78-6.97.87-.98.75-1.64,1.79-2.09,2.99-.03.08-.06.16-.11.29-.05-.12-.08-.21-.11-.29-.45-1.19-1.11-2.23-2.09-2.99-2.16-1.66-4.53-1.82-6.97-.87-2.19.85-3.63,2.49-4.24,4.9-.37,1.48-.34,2.98-.13,4.49.41,2.94,1.6,5.54,3.24,7.91,2.73,3.93,6.21,6.94,10.12,9.45.06.04.12.06.18.07.05,0,.11-.03.18-.07,3.91-2.51,7.39-5.52,10.12-9.45,1.64-2.37,2.83-4.96,3.24-7.91.21-1.5.24-3-.13-4.49Z"/><path d="M170.32,75.69c-.61-2.41-2.05-4.05-4.24-4.9-2.44-.95-4.81-.78-6.97.87-.98.75-1.64,1.79-2.09,2.99-.03.08-.06.16-.11.29-.05-.12-.08-.21-.11-.29-.45-1.19-1.11-2.23-2.09-2.99-2.16-1.66-4.53-1.82-6.97-.87-2.19.85-3.63,2.49-4.24,4.9-.37,1.48-.34,2.98-.13,4.49.41,2.94,1.6,5.54,3.24,7.91,2.73,3.93,6.21,6.94,10.12,9.45.06.04.12.06.18.07.05,0,.11-.03.18-.07,3.91-2.51,7.39-5.52,10.12-9.45,1.64-2.37,2.83-4.96,3.24-7.91.21-1.5.24-3-.13-4.49Z"/><path d="M252.49,75.69c-.61-2.41-2.05-4.05-4.24-4.9-2.44-.95-4.81-.78-6.97.87-.98.75-1.64,1.79-2.09,2.99-.03.08-.06.16-.11.29-.05-.12-.08-.21-.11-.29-.45-1.19-1.11-2.23-2.09-2.99-2.16-1.66-4.53-1.82-6.97-.87-2.19.85-3.63,2.49-4.24,4.9-.37,1.48-.34,2.98-.13,4.49.41,2.94,1.6,5.54,3.24,7.91,2.73,3.93,6.21,6.94,10.12,9.45.06.04.12.06.18.07.05,0,.11-.03.18-.07,3.91-2.51,7.39-5.52,10.12-9.45,1.64-2.37,2.83-4.96,3.24-7.91.21-1.5.24-3-.13-4.49Z"/><path d="M170.32,116.78c-.61-2.41-2.05-4.05-4.24-4.9-2.44-.95-4.81-.78-6.97.87-.98.75-1.64,1.79-2.09,2.99-.03.08-.06.16-.11.29-.05-.12-.08-.21-.11-.29-.45-1.19-1.11-2.23-2.09-2.99-2.16-1.66-4.53-1.82-6.97-.87-2.19.85-3.63,2.49-4.24,4.9-.37,1.48-.34,2.98-.13,4.49.41,2.94,1.6,5.54,3.24,7.91,2.73,3.93,6.21,6.94,10.12,9.45.06.04.12.06.18.07.05,0,.11-.03.18-.07,3.91-2.51,7.39-5.52,10.12-9.45,1.64-2.37,2.83-4.96,3.24-7.91.21-1.5.24-3-.13-4.49Z"/><path d="M252.49,116.78c-.61-2.41-2.05-4.05-4.24-4.9-2.44-.95-4.81-.78-6.97.87-.98.75-1.64,1.79-2.09,2.99-.03.08-.06.16-.11.29-.05-.12-.08-.21-.11-.29-.45-1.19-1.11-2.23-2.09-2.99-2.16-1.66-4.53-1.82-6.97-.87-2.19.85-3.63,2.49-4.24,4.9-.37,1.48-.34,2.98-.13,4.49.41,2.94,1.6,5.54,3.24,7.91,2.73,3.93,6.21,6.94,10.12,9.45.06.04.12.06.18.07.05,0,.11-.03.18-.07,3.91-2.51,7.39-5.52,10.12-9.45,1.64-2.37,2.83-4.96,3.24-7.91.21-1.5.24-3-.13-4.49Z"/><path d="M170.32,157.86c-.61-2.41-2.05-4.05-4.24-4.9-2.44-.95-4.81-.78-6.97.87-.98.75-1.64,1.79-2.09,2.99-.03.08-.06.16-.11.29-.05-.12-.08-.21-.11-.29-.45-1.19-1.11-2.23-2.09-2.99-2.16-1.66-4.53-1.82-6.97-.87-2.19.85-3.63,2.49-4.24,4.9-.37,1.48-.34,2.98-.13,4.49.41,2.94,1.6,5.54,3.24,7.91,2.73,3.93,6.21,6.94,10.12,9.45.06.04.12.06.18.07.05,0,.11-.03.18-.07,3.91-2.51,7.39-5.52,10.12-9.45,1.64-2.37,2.83-4.96,3.24-7.91.21-1.5.24-3-.13-4.49Z"/><path d="M252.49,157.86c-.61-2.41-2.05-4.05-4.24-4.9-2.44-.95-4.81-.78-6.97.87-.98.75-1.64,1.79-2.09,2.99-.03.08-.06.16-.11.29-.05-.12-.08-.21-.11-.29-.45-1.19-1.11-2.23-2.09-2.99-2.16-1.66-4.53-1.82-6.97-.87-2.19.85-3.63,2.49-4.24,4.9-.37,1.48-.34,2.98-.13,4.49.41,2.94,1.6,5.54,3.24,7.91,2.73,3.93,6.21,6.94,10.12,9.45.06.04.12.06.18.07.05,0,.11-.03.18-.07,3.91-2.51,7.39-5.52,10.12-9.45,1.64-2.37,2.83-4.96,3.24-7.91.21-1.5.24-3-.13-4.49Z"/></g></svg>