<?xml version="1.0" encoding="UTF-8"?><svg id="Layer_2" xmlns="http://www.w3.org/2000/svg" viewBox="0 0 273.9 109.56"><defs><style>.cls-1{fill:#000;stroke-width:0px;}</style></defs><g id="Layer_1-2"><rect class="cls-1" x="41.08" width="27.39" height="27.39"/><rect class="cls-1" x="123.25" width="27.39" height="27.39"/><rect class="cls-1" x="205.42" width="27.39" height="27.39"/><rect class="cls-1" x="41.08" y="41.08" width="27.39" height="27.39"/><rect class="cls-1" y="41.08" width="27.39" height="27.39"/><rect class="cls-1" x="205.42" y="41.08" width="27.39" height="27.39"/><rect class="cls-1" x="246.51" y="41.08" width="27.39" height="27.39"/><rect class="cls-1" x="41.08" y="82.17" width="27.39" height="27.39"/><rect class="cls-1" x="123.25" y="82.17" width="27.39" height="27.39"/><rect class="cls-1" x="205.42" y="82.17" width="27.39" height="27.39"/><path class="cls-1" d="M150.36,46.56c-.61-2.41-2.05-4.05-4.24-4.9-2.44-.95-4.81-.78-6.97.87-.98.75-1.64,1.79-2.09,2.99-.03.08-.06.16-.11.29-.05-.12-.08-.21-.11-.29-.45-1.19-1.11-2.23-2.09-2.99-2.16-1.66-4.53-1.82-6.97-.87-2.19.85-3.63,2.49-4.24,4.9-.37,1.48-.34,2.98-.13,4.49.41,2.94,1.6,5.54,3.24,7.91,2.73,3.93,6.21,6.94,10.12,9.45.06.04.12.06.18.07.05,0,.11-.03.18-.07,3.91-2.51,7.39-5.52,10.12-9.45,1.64-2.37,2.83-4.96,3.24-7.91.21-1.5.24-3-.13-4.49Z"/><path class="cls-1" d="M109.27,5.48c-.61-2.41-2.05-4.05-4.24-4.9-2.44-.95-4.81-.78-6.97.87-.98.75-1.64,1.79-2.09,2.99-.03.08-.06.16-.11.29-.05-.12-.08-.21-.11-.29-.45-1.19-1.11-2.23-2.09-2.99-2.16-1.66-4.53-1.82-6.97-.87-2.19.85-3.63,2.49-4.24,4.9-.37,1.48-.34,2.98-.13,4.49.41,2.94,1.6,5.54,3.24,7.91,2.73,3.93,6.21,6.94,10.12,9.45.06.04.12.06.18.07.05,0,.11-.03.18-.07,3.91-2.51,7.39-5.52,10.12-9.45,1.64-2.37,2.83-4.96,3.24-7.91.21-1.5.24-3-.13-4.49Z"/><path class="cls-1" d="M191.44,5.48c-.61-2.41-2.05-4.05-4.24-4.9-2.44-.95-4.81-.78-6.97.87-.98.75-1.64,1.79-2.09,2.99-.03.08-.06.16-.11.29-.05-.12-.08-.21-.11-.29-.45-1.19-1.11-2.23-2.09-2.99-2.16-1.66-4.53-1.82-6.97-.87-2.19.85-3.63,2.49-4.24,4.9-.37,1.48-.34,2.98-.13,4.49.41,2.94,1.6,5.54,3.24,7.91,2.73,3.93,6.21,6.94,10.12,9.45.06.04.12.06.18.07.05,0,.11-.03.18-.07,3.91-2.51,7.39-5.52,10.12-9.45,1.64-2.37,2.83-4.96,3.24-7.91.21-1.5.24-3-.13-4.49Z"/><path class="cls-1" d="M109.27,46.56c-.61-2.41-2.05-4.05-4.24-4.9-2.44-.95-4.81-.78-6.97.87-.98.75-1.64,1.79-2.09,2.99-.03.08-.06.16-.11.29-.05-.12-.08-.21-.11-.29-.45-1.19-1.11-2.23-2.09-2.99-2.16-1.66-4.53-1.82-6.97-.87-2.19.85-3.63,2.49-4.24,4.9-.37,1.48-.34,2.98-.13,4.49.41,2.94,1.6,5.54,3.24,7.91,2.73,3.93,6.21,6.94,10.12,9.45.06.04.12.06.18.07.05,0,.11-.03.18-.07,3.91-2.51,7.39-5.52,10.12-9.45,1.64-2.37,2.83-4.96,3.24-7.91.21-1.5.24-3-.13-4.49Z"/><path class="cls-1" d="M191.44,46.56c-.61-2.41-2.05-4.05-4.24-4.9-2.44-.95-4.81-.78-6.97.87-.98.75-1.64,1.79-2.09,2.99-.03.08-.06.16-.11.29-.05-.12-.08-.21-.11-.29-.45-1.19-1.11-2.23-2.09-2.99-2.16-1.66-4.53-1.82-6.97-.87-2.19.85-3.63,2.49-4.24,4.9-.37,1.48-.34,2.98-.13,4.49.41,2.94,1.6,5.54,3.24,7.91,2.73,3.93,6.21,6.94,10.12,9.45.06.04.12.06.18.07.05,0,.11-.03.18-.07,3.91-2.51,7.39-5.52,10.12-9.45,1.64-2.37,2.83-4.96,3.24-7.91.21-1.5.24-3-.13-4.49Z"/><path class="cls-1" d="M109.27,87.65c-.61-2.41-2.05-4.05-4.24-4.9-2.44-.95-4.81-.78-6.97.87-.98.75-1.64,1.79-2.09,2.99-.03.08-.06.16-.11.29-.05-.12-.08-.21-.11-.29-.45-1.19-1.11-2.23-2.09-2.99-2.16-1.66-4.53-1.82-6.97-.87-2.19.85-3.63,2.49-4.24,4.9-.37,1.48-.34,2.98-.13,4.49.41,2.94,1.6,5.54,3.24,7.91,2.73,3.93,6.21,6.94,10.12,9.45.06.04.12.06.18.07.05,0,.11-.03.18-.07,3.91-2.51,7.39-5.52,10.12-9.45,1.64-2.37,2.83-4.96,3.24-7.91.21-1.5.24-3-.13-4.49Z"/><path class="cls-1" d="M191.44,87.65c-.61-2.41-2.05-4.05-4.24-4.9-2.44-.95-4.81-.78-6.97.87-.98.75-1.64,1.79-2.09,2.99-.03.08-.06.16-.11.29-.05-.12-.08-.21-.11-.29-.45-1.19-1.11-2.23-2.09-2.99-2.16-1.66-4.53-1.82-6.97-.87-2.19.85-3.63,2.49-4.24,4.9-.37,1.48-.34,2.98-.13,4.49.41,2.94,1.6,5.54,3.24,7.91,2.73,3.93,6.21,6.94,10.12,9.45.06.04.12.06.18.07.05,0,.11-.03.18-.07,3.91-2.51,7.39-5.52,10.12-9.45,1.64-2.37,2.83-4.96,3.24-7.91.21-1.5.24-3-.13-4.49Z"/></g></svg>