<?xml version="1.0" encoding="UTF-8"?><svg id="Layer_2" xmlns="http://www.w3.org/2000/svg" viewBox="0 0 47.08 46.29"><g id="Layer_1-2"><g id="dhJ2U0"><path d="M.18,29.02c-.2-.13-.24-.31-.09-.53.05.04.09.07.09.07.18-.1.35-.17.5-.27.12-.07.22-.16.34-.23.18-.12.35-.23.53-.34.23-.12.46-.23.69-.35.24-.12.47-.24.72-.34.62-.26,1.25-.52,1.87-.76.24-.09.49-.13.73-.21.23-.07.45-.17.68-.26.24-.09.48-.18.72-.28.12-.05.22-.13.34-.16.4-.12.8-.21,1.2-.33.18-.06.34-.18.52-.25.33-.14.66-.27,1-.38.31-.1.63-.19.95-.26.94-.22,1.89-.43,2.83-.63.12-.03.25.03.38.04.06,0,.16.02.17,0,.03-.06.04-.14.02-.21-.11-.37-.22-.74-.35-1.11-.09-.25-.24-.49-.35-.74-.1-.23-.18-.47-.27-.71-.1-.26-.22-.52-.29-.79-.1-.4-.15-.8-.24-1.2-.05-.25-.12-.49-.19-.74-.02-.07-.06-.13-.08-.19-.17-.68-.29-1.38-.52-2.05-.07-.2-.21-.41-.26-.64-.03-.12-.07-.23-.09-.35-.09-.49-.28-.96-.46-1.42-.06-.15-.05-.31-.09-.47-.08-.27-.16-.54-.26-.8-.1-.27-.23-.52-.36-.81.11-.2.22-.44.36-.65.26-.38.88-.39,1.18-.05.06.07.19.09.29.14.24.35.23.84.61,1.17.18.16.37.3.58.43.03.02.08.03.1.06.3.33.64.63.93.97.13.15.26.4.54.44.07.01.11.19.19.28.07.08.16.13.25.18.23.23.47.46.7.7.2.22.37.46.58.67.13.14.31.24.46.35.04.03.1.04.14.08.19.19.37.39.55.59.04.05.04.15.06.23.15-.1.22,0,.34.1.19.16.48.21.64.39.26.29.27.02.35-.11.2-.33.4-.66.6-.99.08-.13.15-.26.23-.39.37-.62.73-1.25,1.11-1.86.35-.56.73-1.1,1.07-1.66.33-.53.63-1.07.94-1.6.04-.06.11-.11.14-.17.03-.06.03-.14.08-.18.07-.08.16-.15.22-.24.18-.27.35-.55.52-.82.01-.02.04-.03.05-.05.14-.23.28-.45.41-.69.11-.2.19-.42.31-.63.09-.16.21-.31.32-.47.09-.13.18-.26.27-.4.17-.28.34-.55.51-.83.15-.25.34-.48.47-.74.32-.67.86-1.19,1.21-1.83.28-.51.72-.89,1.03-1.37.25-.37.47-.75.72-1.12.23-.34.52-.6.94-.7.14-.03.22,0,.27.11.05.12.12.17.26.14.07-.01.2.06.23.13.12.29.24.58.15.91-.05.18-.06.38-.09.57-.06.33-.11.66-.19.98-.03.14-.13.27-.16.42-.14.54-.22,1.09-.48,1.6-.18.34-.23.74-.36,1.1-.13.34-.3.67-.43,1.01-.13.33-.22.67-.32,1.01-.06.19-.1.37-.16.56-.14.48-.29.97-.44,1.45-.06.18-.16.35-.22.53-.2.56-.41,1.12-.59,1.69-.13.43-.22.87-.34,1.3-.05.19-.17.35-.24.53-.09.26-.17.52-.25.78-.15.51-.3,1.03-.45,1.54-.13.42-.26.83-.39,1.25-.04.13-.07.27-.1.42.3-.19.6-.37.9-.57.43-.28.85-.59,1.3-.84.79-.44,1.49-.99,2.22-1.51.53-.38,1.11-.71,1.66-1.07.25-.16.46-.37.7-.54.16-.11.34-.18.5-.29.32-.2.63-.42.94-.63.28-.18.55-.36.83-.54.19-.12.38-.24.56-.36.53-.35,1.06-.7,1.58-1.07.32-.23.61-.51.93-.75.49-.37,1-.72,1.5-1.09.16-.12.31-.26.48-.35.28-.16.57-.31.87-.44.13-.06.29-.06.44-.05.05,0,.09.1.12.17.24.08.36.4.18.62-.18.23-.4.44-.61.66-.36.36-.74.7-1.09,1.08-.39.42-.75.87-1.12,1.3-.41.49-.82.97-1.23,1.47-.33.4-.64.81-.95,1.22-.3.39-.59.8-.9,1.19-.2.26-.44.49-.64.75-.31.4-.59.83-.91,1.23-.49.61-1,1.2-1.49,1.81-.36.45-.7.92-1.05,1.39-.28.37-.55.73-.83,1.1-.03.04-.06.09-.13.18.14.05.25.1.37.12.72.11,1.45.21,2.17.31.25.03.5.02.74.06.26.04.51.13.78.17.5.08,1.01.14,1.51.2.51.06,1.03.1,1.54.17.61.08,1.21.18,1.82.28.72.12,1.45.22,2.17.37.7.14,1.39.34,2.08.51.3.08.61.14.91.23.36.12.59.41.78.72.12.18-.21.55-.43.56-.2,0-.39.03-.58.07-.12.02-.25-.04-.37-.07-.12-.03-.23-.05-.37-.08,0,.06.02.1.02.16-.1-.02-.18-.03-.26-.05-.13-.03-.27-.14-.38.04,0,.01-.05.01-.07,0-.33-.15-.64.07-.97.04-.24-.02-.49.11-.73.18-.21.06-.42.15-.59-.03-.1.06-.19.13-.29.15-.59.1-1.17.19-1.76.29-.07.01-.14.08-.19.11-.48.1-.96.2-1.44.29-.21.04-.42.04-.62.09-.54.12-1.08.26-1.63.39-.45.11-.9.22-1.35.33-.56.13-1.13.25-1.69.38-.13.03-.26.12-.38.18-.04.02-.07.04-.11.05-.43.08-.85.17-1.28.23-.69.09-1.36.33-2.07.27-.27-.02-.33.07-.24.34.07.21.17.4.24.61.19.55.27,1.13.36,1.7.13.79.33,1.58.5,2.36.11.47.18.95.36,1.39.13.33.23.65.29.99.04.28.08.57.14.85.1.45.24.89.33,1.34.07.38.1.77.15,1.15.09.64.21,1.27.41,1.88.07.23.08.48.08.72.01.31-.25.42-.46.56-.18-.24-.2-.24-.47-.06-.05.04-.22,0-.26-.05-.15-.21-.27-.44-.42-.65-.08-.12-.19-.21-.28-.32-.1-.12-.19-.25-.29-.37-.18-.25-.37-.49-.53-.75-.36-.6-.7-1.2-1.05-1.8-.38-.66-.75-1.31-1.13-1.97-.07-.12-.1-.25-.16-.37-.21-.42-.43-.83-.64-1.25-.23-.46-.43-.93-.67-1.39-.15-.29-.29-.59-.5-.85-.74-.91-1.24-1.92-1.51-3.06,0-.03-.02-.06-.03-.09,0-.01-.03-.02-.02-.01-.23.26-.43.54-.69.75-.31.27-.67.48-1.01.72-.34.25-.67.51-1,.76-.24.18-.45.4-.72.54-.2.1-.35.29-.53.43-.07.05-.15.09-.23.14-.42.29-.81.61-1.26.85-.31.17-.52.52-.93.51-.07,0-.16.1-.22.17-.22.29-.57.38-.87.55-.08.04-.16.08-.22.14-.48.46-1.04.79-1.63,1.08-.36.18-.7.39-1.05.59-.61.34-1.2.72-1.83,1.02-.34.16-.65.4-1.09.35-.42-.06-.71-.35-.58-.82-.04,0-.09,0-.14-.01.05-.18.08-.35.15-.5.04-.09.14-.15.22-.22.02.08.04.16.08.29.09-.16.16-.3.24-.44-.02-.01-.04-.03-.05-.04-.05.04-.1.09-.14.13-.02-.01-.04-.02-.06-.04.11-.18.21-.37.32-.55.03.02.06.03.09.05l-.14.31s.03.02.05.03c1.07-1.38,2.28-2.65,3.23-4.19-.03-.08-.04-.2.18-.27.11-.04.21-.19.27-.31.28-.5.59-.97,1.05-1.34.48-.39.9-.87,1.35-1.3.16-.15.32-.3.53-.49-.11-.02-.15-.04-.19-.03-.25.04-.49.1-.74.12-.2.02-.4-.03-.6-.03-.26,0-.53.04-.79.07-.29.04-.58.16-.86.13-.32-.04-.6.09-.91.08-.36,0-.73.05-1.09.08-.08,0-.16-.01-.23-.02-.01,0-.03-.03-.03-.03-.23.08-.44.09-.68.03-.22-.05-.46.01-.69.03-.03,0-.08-.03-.09-.02-.18.18-.39.07-.59.06-.26-.02-.53-.05-.78.02-.21.06-.37-.03-.56-.03-.3,0-.6-.02-.9-.02-.2,0-.4-.02-.6,0-.28.04-.55.06-.83.05-.18,0-.35-.03-.54-.06-.2-.03-.42.03-.63.05-.1,0-.21,0-.31.01-.29.01-.59.03-.88.04-.3,0-.59-.03-.89,0-.36.02-.71.08-1.07.12-.07,0-.16,0-.22-.05-.22-.13-.26-.46-.09-.73ZM28.74,5.4s-.04-.02-.05-.03c-.22.19-.43.39-.55.67-.02.06-.04.14-.08.17-.21.11-.3.3-.41.49-.1.18-.22.35-.35.52-.38.51-.77,1.01-1.13,1.52-.19.26-.32.56-.5.83-.27.41-.55.8-.82,1.21-.22.34-.43.68-.65,1.03-.18.28-.37.56-.55.85-.13.21-.24.44-.37.65-.15.24-.31.47-.46.71-.38.61-.76,1.22-1.14,1.83-.2.32-.41.62-.59.94-.39.72-.76,1.45-1.15,2.17-.16.3-.65.48-.99.4-.42-.11-.65-.46-.98-.68-.18-.12-.35-.25-.53-.36-.36-.24-.78-.42-1.07-.73-.17-.18-.35-.36-.53-.54-.5-.49-.98-1-1.47-1.5-.18-.18-.37-.35-.56-.53-.02.02-.03.03-.05.05.07.16.16.31.21.47.14.46.27.93.38,1.39.09.36.13.74.2,1.1.06.35.04.74.2,1.03.26.46.06,1.02.42,1.43,0,0,0,.03,0,.05.04.19.07.39.13.57.17.48.37.95.53,1.44.13.38.21.78.32,1.16.08.27-.02.6-.28.71-.22.09-.46.13-.7.16-.17.03-.35-.03-.51.02-.42.13-.86,0-1.29.18-.37.15-.81.11-1.21.21-.61.15-1.21.34-1.8.53-1.18.39-2.36.78-3.54,1.19-.68.24-1.36.5-2.03.76-.31.12-.6.27-.91.38-.29.1-.6.16-.91.24-.07.02-.14.06-.21.1.07.07.12.09.17.1.26.03.53-.04.8,0,.26.04.52.03.78.03.43,0,.86,0,1.29,0,.08,0,.15-.03.23-.03.34-.02.68.13,1.02.01.04-.01.08,0,.12,0,.44,0,.88,0,1.32.01.27,0,.54,0,.8,0,.13,0,.27,0,.4,0,.17-.02.33-.05.5-.08.04,0,.08,0,.12,0,.29-.03.58-.07.87-.09.13,0,.26.06.39.04.19-.02.38-.09.57-.11.24-.03.48,0,.72-.03.22-.02.43-.08.64-.11.27-.04.54-.07.81-.09.22-.02.45-.06.67-.05.42.02.84.03,1.25-.08.49-.13.89.09,1.29.33.21.13.1.32.14.48,0,.02.03.05.02.07-.01.1,0,.22-.05.28-.2.22-.41.43-.63.63-.35.32-.7.64-1.05.96-.17.15-.34.3-.5.46-.12.11-.21.25-.33.35-.26.24-.58.43-.8.7-.72.86-1.41,1.75-2.11,2.64-.37.47-.72.95-1.09,1.43-.23.3-.48.59-.7.9-.05.07-.03.19-.04.28.09-.02.17-.04.26-.06.25-.06.32-.43.64-.38.02,0,.05-.04.08-.05.16-.11.31-.24.47-.34.17-.1.34-.21.52-.24.2-.03.25-.23.47-.27.25-.04.47-.26.69-.41.24-.16.46-.35.7-.51.29-.19.6-.35.89-.54.11-.07.19-.18.29-.27.02.02.06.05.06.05.23-.13.45-.23.64-.35.51-.32,1.01-.65,1.51-.98.06-.04.08-.14.11-.22.03-.06.04-.14.09-.17.1-.07.22-.11.34-.17.17.13.23.12.32-.08-.06.02-.13.04-.23.08.21-.2.38-.39.58-.54.08-.06.17-.21.34-.09.05.03.2-.09.31-.14-.18-.18.04-.19.11-.25.09-.08.19-.14.29-.21.34-.24.68-.48,1.02-.73.03-.02.07-.04.1-.07.23-.22.47-.45.72-.69.04.09.05.12.05.11.17-.05.32-.13.47-.12.31.02-.02.31.16.43.07-.04.14-.1.22-.14.09-.04.18-.06.27-.11.24-.13.38-.13.54.1.35.49.67.99,1.01,1.49.17.25.32.53.51.76.48.58.9,1.2,1.23,1.88.11.22.18.46.29.68.08.18.18.35.28.52.2.38.41.76.6,1.15.1.22.16.46.25.69.06.15.11.31.19.46.26.49.54.97.81,1.46.13.25.24.51.37.76.06.12.17.21.3.36-.03-.24-.04-.41-.07-.57-.08-.39-.16-.78-.24-1.18-.02-.11-.05-.22-.07-.33-.07-.41-.1-.82-.2-1.22-.15-.61-.33-1.22-.53-1.83-.34-1.04-.53-2.12-.73-3.19-.08-.42-.19-.84-.31-1.26-.18-.59-.36-1.17-.58-1.75-.09-.25-.04-.43.11-.6.19-.23.46-.26.73-.22.2.03.38.14.58.14.36,0,.71-.11,1.09-.11.42,0,.83-.11,1.25-.2.25-.05.49-.14.74-.2.71-.17,1.43-.32,2.14-.49.47-.11.93-.22,1.39-.35.59-.18,1.23-.2,1.79-.48.04-.02.09-.02.14-.03.44-.05.89-.08,1.33-.15.48-.08.94-.19,1.42-.28.38-.08.77-.15,1.15-.21.26-.05.52-.08.77-.13,0-.02,0-.04,0-.06-.15-.02-.31-.03-.46-.06-.22-.04-.43-.12-.65-.15-.83-.11-1.66-.2-2.49-.3-.54-.07-1.09-.14-1.63-.22-.54-.08-1.09-.14-1.63-.24-.58-.1-1.15-.24-1.73-.34-.63-.11-1.27-.14-1.89-.29-.39-.09-.84-.02-1.15-.41-.14-.18-.16-.32-.08-.47.14-.28.33-.53.5-.79.22-.34.5-.65.65-1.01.19-.45.53-.75.83-1.12-.02-.03-.04-.08-.07-.13.03,0,.05.02.08.03.09-.12.17-.23.26-.35.04-.05.06-.11.1-.15.21-.22.43-.44.64-.67.01-.01.03-.03.03-.04-.08-.23.16-.23.24-.35.03-.04.1-.06.13-.1.13-.18.23-.38.38-.55.23-.28.49-.55.73-.83.02-.02.04-.05.05-.08.12-.21.21-.43.35-.62.17-.23.34-.5.57-.65.33-.21.44-.57.68-.83.28-.3.52-.64.78-.96.13-.16.25-.33.37-.5-.02-.02-.04-.04-.06-.06-.1.07-.21.13-.31.2-.48.29-.97.58-1.44.88-.43.28-.85.58-1.28.86-.39.26-.8.49-1.19.75-.63.43-1.25.87-1.88,1.3-.5.34-1.01.66-1.53.98-.54.34-1.09.66-1.63,1.01-.42.27-.82.57-1.23.86-.13.09-.28.17-.41.27-.27.2-.49.44-.88.39-.35-.04-.62-.23-.6-.59.01-.22.04-.45.13-.64.19-.41.41-.79.5-1.24.08-.43.38-.81.37-1.27,0-.21.07-.42.13-.63.08-.26.19-.52.26-.78.07-.26.08-.54.17-.79.21-.61.48-1.2.59-1.84.09-.51.29-1,.44-1.49.2-.67.4-1.34.6-2.02.15-.5.29-.99.44-1.49.15-.48.27-.97.46-1.44.12-.31.08-.67.34-.93.02-.02,0-.06,0-.09Z"/><path d="M18.42.28c.17-.33.56-.37.81-.1.18.19.2.41.2.64,0,.73.02,1.46.02,2.19,0,.48,0,.95,0,1.43,0,.22.04.45.06.67.04.38.08.76.11,1.14.02.26.05.52.06.79.02.48.02.96.03,1.44,0,.28.05.56.04.83-.02.4-.07.79-.1,1.19-.02.32-.02.64-.04.95-.03.41-.04.83-.12,1.24-.07.37-.53.47-.78.19-.06-.07-.08-.19-.07-.28.06-.53.11-1.06.05-1.59-.04-.4-.04-.8-.07-1.21-.04-.55-.1-1.09-.15-1.64-.01-.14.02-.29.02-.43,0-.22,0-.44,0-.67,0-.36.03-.71.02-1.07-.01-.38-.05-.76-.08-1.14-.01-.16-.04-.32-.03-.48.06-.84.08-1.68-.03-2.51-.05-.36-.04-.74-.04-1.1,0-.16.05-.32.08-.48Z"/><path d="M.55,36.89c.1-.1.16-.16.22-.21.4-.31.81-.61,1.22-.91.26-.19.52-.38.83-.51.59-.25,1.16-.56,1.73-.87.58-.31,1.14-.67,1.71-.98.7-.38,1.47-.61,2.2-.93.33-.15.63-.39.92-.62.17-.13.56-.15.76.02.21.18.17.37,0,.63-.33.53-.86.72-1.38.94-.27.12-.52.3-.79.41-.58.24-1.09.58-1.62.91-.45.29-.95.51-1.42.76-.43.24-.85.49-1.28.73-.12.07-.25.12-.37.18-.32.16-.64.31-.96.48-.37.2-.73.42-1.12.61-.2.1-.42,0-.54-.17-.09-.13-.09-.32-.12-.46Z"/><path d="M18.85,46.12c-.11.09-.19-.02-.2-.13-.02-.23-.05-.47-.01-.7.09-.61.22-1.22.33-1.83.07-.39.14-.77.19-1.16.05-.38.06-.76.11-1.14.04-.33.13-.65.19-.97.07-.42.13-.85.2-1.28.12-.66.24-1.32.36-1.98.05-.28.09-.57.16-.85.15-.61.3-1.21.47-1.81.03-.11.17-.19.27-.29.09.08.23.16.25.26.05.25.07.52.05.78-.06.69-.16,1.38-.22,2.07-.06.66-.14,1.31-.3,1.96-.16.67-.25,1.36-.34,2.04-.07.49-.08,1-.13,1.49-.04.38-.1.75-.16,1.12-.07.43-.12.87-.23,1.29-.1.39-.13.82-.42,1.14-.09.1-.25.13-.39.17-.03,0-.1-.09-.18-.17Z"/><path d="M36.6,19.65c.21-.36.49-.47.76-.57.52-.19,1.04-.37,1.58-.52.33-.09.69-.09,1.02-.17.45-.1.89-.23,1.33-.35.26-.07.53-.14.79-.22.63-.19,1.25-.38,1.88-.56.08-.02.19.02.27-.01.67-.24,1.35-.37,2.06-.42.18-.01.38-.02.55.04.11.04.19.2.23.32.06.18-.03.35-.21.44-.66.31-1.31.61-2.04.72-.27.04-.52.16-.79.2-.4.07-.81.09-1.22.16-.48.08-.95.19-1.43.3-.65.14-1.3.28-1.95.43-.26.06-.52.13-.77.21-.51.16-1.02.33-1.54.48-.13.04-.36.03-.42-.05-.09-.13-.08-.33-.09-.44Z"/><path d="M33.2,31.9c.17.14.4.34.64.54.13.11.27.19.4.3.49.4,1.02.76,1.45,1.22.43.46.99.71,1.43,1.13.3.29.56.6.86.89.42.4.85.78,1.27,1.19.18.17.33.37.47.58.14.21-.04.34-.17.47-.14.14-.3.11-.44,0-.32-.25-.63-.5-.95-.75-.29-.22-.58-.44-.87-.66-.2-.16-.39-.33-.58-.5-.31-.26-.62-.51-.92-.78-.38-.33-.75-.68-1.13-1.02-.29-.26-.59-.52-.86-.8-.31-.31-.59-.64-.89-.96-.05-.05-.11-.1-.17-.14-.25-.15-.32-.34-.2-.59.12-.24.26-.28.66-.11Z"/><path d="M10.42,21.37c-.13.03-.27.04-.38.11-.16.09-.29.08-.42-.03-.25-.22-.49-.46-.75-.66-.36-.28-.76-.51-1.13-.78-.43-.32-.84-.66-1.27-.98-.24-.18-.52-.31-.77-.49-.41-.3-.84-.59-1.21-.94-.4-.37-.19-.67.16-.87.09-.05.29,0,.4.07.46.27.89.59,1.36.85.71.4,1.38.86,1.98,1.43.46.43.99.77,1.44,1.21.42.4.93.64,1.39.95.08.05.11.18.16.27-.1.04-.21.14-.31.13-.21-.03-.42-.1-.63-.16,0-.03,0-.05-.01-.08Z"/><path d="M37.01,4.51c.28.13.35.34.24.55-.08.15-.2.27-.29.42-.13.21-.24.43-.37.64-.08.13-.15.27-.23.39-.31.47-.63.94-.94,1.4-.18.26-.37.5-.55.76-.21.29-.41.59-.62.88-.17.22-.36.43-.54.64-.17.19-.35.23-.57.07-.19-.14-.26-.34-.16-.6.07-.19.17-.38.28-.55.49-.72.98-1.44,1.48-2.16.37-.53.72-1.07,1.1-1.59.2-.27.44-.52.68-.76.16-.16.37-.12.5-.1Z"/></g></g></svg>